<svg width="12" height="18" viewBox="0 0 12 18" fill="none" xmlns="http://www.w3.org/2000/svg">
<path id="Subtract" fill-rule="evenodd" clip-rule="evenodd" d="M7.5777 17.0356C9.27304 13.605 11.728 8.25906 11.728 6.06625H11.7225C11.7225 2.71567 9.15745 0 5.99795 0C2.83846 0 0.273438 2.71567 0.273438 6.06625C0.273438 8.25906 2.72838 13.605 4.42371 17.0356C5.05671 18.3215 6.9447 18.3215 7.5777 17.0356ZM8.45522 5.72902C8.45522 7.08463 7.35628 8.18357 6.00067 8.18357C4.64506 8.18357 3.54613 7.08463 3.54613 5.72902C3.54613 4.37341 4.64506 3.27448 6.00067 3.27448C7.35628 3.27448 8.45522 4.37341 8.45522 5.72902Z" fill="#AEACAB"/>
</svg>
