<svg width="190" height="130" viewBox="0 0 190 130" fill="none" xmlns="http://www.w3.org/2000/svg">
<g id="Group 8">
<path id="Vector" d="M76.8829 129.063C62.8578 129.063 53.1753 124.764 49.3574 116.743C45.0804 107.736 49.0819 95.942 60.6405 83.5297C70.9921 72.4191 86.5129 61.5978 104.343 53.0774C122.173 44.5571 140.331 39.2845 155.471 38.2195C172.369 37.0361 184.033 41.3488 188.323 50.3557C192.613 59.3625 188.599 71.1568 177.04 83.5692C166.688 94.6798 151.168 105.501 133.338 114.021C115.508 122.542 97.3499 127.814 82.2096 128.879C80.3728 129.011 78.6016 129.077 76.8829 129.077V129.063ZM160.745 49.2117C159.302 49.2117 157.806 49.2643 156.245 49.3695C142.469 50.3294 125.741 55.2338 109.145 63.1624C92.5481 71.0911 78.208 81.0315 68.788 91.1428C60.9292 99.5842 57.3343 107.539 59.4204 111.918C61.5064 116.296 69.9425 118.518 81.4224 117.703C95.1983 116.743 111.926 111.839 128.523 103.91C145.119 95.9815 159.459 86.0411 168.879 75.9298C176.738 67.4884 180.333 59.5334 178.247 55.1549C176.45 51.3681 169.903 49.1986 160.745 49.1986V49.2117Z" fill="url(#paint0_linear_433_28127)"/>
<path id="Vector_2" d="M112.11 98.5457C108.961 98.5457 105.563 98.2828 101.942 97.7305C86.9331 95.4821 69.2475 88.7895 52.1392 78.8885C35.0309 68.9876 20.4023 56.9829 10.9559 45.0833C0.420695 31.8032 -2.64935 19.7327 2.32308 11.0941C13.265 -7.89259 53.5168 1.73222 85.831 20.4296C102.939 30.3305 117.555 42.3353 127.014 54.2348C137.563 67.5149 140.633 79.5985 135.647 88.2372C131.751 95.0088 123.551 98.5457 112.11 98.5457ZM25.8208 11.9487C18.5917 11.9487 13.7111 13.6843 11.9924 16.6822C9.57836 20.8767 12.5303 29.0946 19.7069 38.1277C28.3004 48.9622 41.8139 59.9939 57.7414 69.2111C73.6689 78.4283 89.9507 84.6345 103.608 86.6725C114.996 88.3818 123.577 86.8303 126.004 82.6359C128.418 78.4415 125.466 70.2236 118.303 61.1904C109.709 50.3559 96.1957 39.3242 80.2682 30.107C57.8857 17.1556 38.3371 11.9487 25.8339 11.9487H25.8208Z" fill="url(#paint1_linear_433_28127)"/>
<path id="Vector_3" d="M76.8849 129.064C62.8597 129.064 53.1773 124.764 49.3594 116.744L59.4223 111.931C61.5084 116.31 69.9445 118.532 81.4243 117.717C95.2002 116.757 111.928 111.852 128.525 103.924C145.121 95.9951 159.461 86.0548 168.881 75.9435C176.74 67.502 180.335 59.5471 178.249 55.1686C176.163 50.7901 167.727 48.5811 156.247 49.3832C142.471 50.343 125.743 55.2475 109.147 63.1761L104.345 53.0911C122.175 44.5708 140.333 39.2982 155.473 38.2331C172.371 37.0497 184.035 41.3625 188.325 50.3693C192.615 59.3762 188.601 71.1705 177.042 83.5828C166.69 94.6934 151.17 105.515 133.34 114.035C115.51 122.555 97.3519 127.828 82.2115 128.893C80.3747 129.025 78.6036 129.09 76.8849 129.09V129.064Z" fill="url(#paint2_linear_433_28127)"/>
</g>
<defs>
<linearGradient id="paint0_linear_433_28127" x1="114.864" y1="42.0956" x2="122.839" y2="124.985" gradientUnits="userSpaceOnUse">
<stop stop-color="#B083DB"/>
<stop offset="0.6" stop-color="#22CEFF"/>
<stop offset="1" stop-color="#99E6D6"/>
</linearGradient>
<linearGradient id="paint1_linear_433_28127" x1="61.1916" y1="89.8958" x2="76.8411" y2="9.51644" gradientUnits="userSpaceOnUse">
<stop stop-color="#F17699"/>
<stop offset="0.07" stop-color="#F38290"/>
<stop offset="0.38" stop-color="#FBB16F"/>
<stop offset="0.53" stop-color="#FFC463"/>
<stop offset="0.65" stop-color="#FFA34F"/>
<stop offset="0.79" stop-color="#FF873D"/>
<stop offset="0.91" stop-color="#FF7632"/>
<stop offset="1" stop-color="#FF702F"/>
</linearGradient>
<linearGradient id="paint2_linear_433_28127" x1="115.378" y1="42.0537" x2="123.358" y2="124.931" gradientUnits="userSpaceOnUse">
<stop stop-color="#B083DB"/>
<stop offset="0.6" stop-color="#22CEFF"/>
<stop offset="1" stop-color="#99E6D6"/>
</linearGradient>
</defs>
</svg>
