<svg width="16" height="16" viewBox="0 0 16 16" fill="none" xmlns="http://www.w3.org/2000/svg">
<path id="Union" fill-rule="evenodd" clip-rule="evenodd" d="M9.49822 4.5C9.49822 6.70914 7.70736 8.5 5.49822 8.5C3.28908 8.5 1.49822 6.70914 1.49822 4.5C1.49822 2.29086 3.28908 0.5 5.49822 0.5C7.70736 0.5 9.49822 2.29086 9.49822 4.5ZM5.49822 9.5C3.01992 9.5 0.962747 11.6637 0.566967 14.5028C0.490713 15.0498 0.945937 15.5 1.49822 15.5H9.49822C10.0505 15.5 10.5057 15.0498 10.4295 14.5028C10.0337 11.6637 7.97652 9.5 5.49822 9.5ZM10.4982 8.5C9.73827 8.5 9.02783 8.28808 8.42276 7.92012C9.38701 7.09478 9.99811 5.86875 9.99811 4.5C9.99811 3.13125 9.38701 1.90522 8.42276 1.07988C9.02783 0.711919 9.73827 0.5 10.4982 0.5C12.7073 0.5 14.4982 2.29086 14.4982 4.5C14.4982 6.70914 12.7073 8.5 10.4982 8.5ZM14.4982 15.5H10.8503C10.9272 15.3531 10.963 15.1828 10.9427 15.0017C10.7083 12.9126 9.74924 11.1209 8.3999 10.0523C9.03798 9.69782 9.74884 9.5 10.4982 9.5C12.9765 9.5 15.0337 11.6637 15.4295 14.5028C15.5057 15.0498 15.0505 15.5 14.4982 15.5Z" fill="#AEACAB"/>
</svg>
