<svg width="22" height="22" viewBox="0 0 22 22" fill="none" xmlns="http://www.w3.org/2000/svg">
<path id="Union" fill-rule="evenodd" clip-rule="evenodd" d="M12.6391 4.20031C14.9479 6.50905 14.9479 10.2523 12.6391 12.561C10.3304 14.8697 6.58717 14.8697 4.27843 12.561C1.96969 10.2523 1.96969 6.50905 4.27843 4.20031C6.58717 1.89156 10.3304 1.89156 12.6391 4.20031ZM14.648 13.3105C17.1285 10.2042 16.9302 5.663 14.0533 2.78609C10.9635 -0.303698 5.95401 -0.303697 2.86422 2.78609C-0.225573 5.87588 -0.225572 10.8854 2.86422 13.9752C5.68775 16.7987 10.1144 17.0421 13.2142 14.7052L19.747 21.238C20.1376 21.6285 20.7707 21.6285 21.1613 21.238C21.5518 20.8474 21.5518 20.2143 21.1613 19.8238L14.648 13.3105Z" fill="current"/>
</svg>
