<svg width="128" height="41" viewBox="0 0 128 41" fill="none" xmlns="http://www.w3.org/2000/svg">
<g id="slogan">
<path id="Vector" d="M0.21875 8.97438H4.60157V12.3001H4.77367C5.89806 9.92953 8.03211 8.37598 10.5218 8.37598C11.3135 8.37598 12.0363 8.52558 12.7821 8.80176V13.0712C11.933 12.841 11.084 12.7029 10.3153 12.6914C6.7012 12.7144 4.61305 15.4878 4.61305 20.3326V31.0118H0.21875V8.97438Z" fill="#1C1818"/>
<path id="Vector_2" d="M17.0505 25.1649C13.9298 19.2614 15.8573 12.6559 21.5252 9.64086C27.193 6.62583 33.423 8.90436 36.5438 14.8079C36.7732 15.2452 36.9912 15.7055 37.1633 16.1658L21.7431 24.3593C23.969 27.4319 27.606 28.2489 30.9563 26.4767C33.423 25.1649 34.5589 23.0819 34.4556 20.6998L38.6205 20.274C38.7352 24.2212 36.7962 27.8116 32.7576 29.9636C26.78 33.1397 20.1598 31.0223 17.062 25.1533L17.0505 25.1649ZM31.3234 14.8769C29.6598 12.3797 26.4243 11.4821 23.3609 13.1162C20.2975 14.7503 19.2305 17.6503 20.0795 20.8494L31.3234 14.8769Z" fill="#1C1818"/>
<path id="Vector_3" d="M42.8867 8.97438H47.2695V12.2656H47.4416C48.8873 9.69937 51.2508 8.37598 54.383 8.37598C60.4524 8.37598 64.7894 13.3704 64.7664 19.9873C64.7894 26.6043 60.441 31.5987 54.383 31.5987C51.2508 31.5987 48.8643 30.2523 47.4416 27.6745H47.2695V40.2295H42.8867V8.97438ZM60.3033 19.9873C60.3262 15.6144 57.5956 12.4958 53.7061 12.5188C49.851 12.4958 47.1089 15.5914 47.1089 19.9873C47.1089 24.3833 49.851 27.4789 53.7061 27.4559C57.607 27.4789 60.3262 24.3603 60.3033 19.9873Z" fill="#1C1818"/>
<path id="Vector_4" d="M69.8281 0.0898438H74.2109V31.0112H69.8281V0.0898438Z" fill="#1C1818"/>
<path id="Vector_5" d="M96.7902 31.011V27.6853H96.6181C95.1725 30.2745 92.809 31.6094 89.6767 31.6094C83.5844 31.6094 79.2474 26.615 79.2933 19.9981C79.2474 13.3811 83.5958 8.38672 89.6767 8.38672C92.786 8.38672 95.1495 9.71011 96.6181 12.2763H96.7902V8.98512H101.173V31.0225H96.7902V31.011ZM96.9623 19.9981C96.9394 15.6021 94.1972 12.5065 90.3651 12.5295C86.4527 12.5065 83.722 15.6251 83.7679 19.9981C83.722 24.371 86.4527 27.4896 90.3651 27.4666C94.1972 27.4896 96.9394 24.394 96.9623 19.9981Z" fill="#1C1818"/>
<path id="Vector_6" d="M105.301 8.9744H109.982L116.751 25.7182H116.969L123.142 8.9744H127.777L115.638 40.2295H110.957L114.537 31.0003L105.301 8.96289V8.9744Z" fill="#1C1818"/>
</g>
</svg>
